<?xml version="1.0" encoding="utf-8"?>
<!-- Generator: Adobe Illustrator 18.0.0, SVG Export Plug-In . SVG Version: 6.00 Build 0)  -->
<!DOCTYPE svg PUBLIC "-//W3C//DTD SVG 1.1//EN" "http://www.w3.org/Graphics/SVG/1.1/DTD/svg11.dtd">
<svg version="1.1" id="Layer_1" xmlns="http://www.w3.org/2000/svg" xmlns:xlink="http://www.w3.org/1999/xlink" x="0px" y="0px"
	 viewBox="11.7 232 627.8 722.9" enable-background="new 11.7 232 627.8 722.9" xml:space="preserve">
<g>
	<path fill="none" stroke="#FFFFFF" stroke-width="22" stroke-miterlimit="10" d="M411.7,494c0.8,3.5,1.5,7.4,2.4,10.9l-0.8-0.4
		C412.4,500.9,412.1,497.5,411.7,494L411.7,494z M485.8,592c-15.7,15-36.7,26.6-60.3,33.6c10.1,22.1,15.7,46.3,15.7,72.1
		c0,75.6-48.7,140-116.9,162.9c53.4-66,88.4-147.1,96.3-237.2c3.2-36.7,1.5-73.3-4.2-108.5c3.2,11.3,30.4,2,40.8-3.5
		c-4.2,9.8-31.7,18.5-26.6,24.3c52.4,66.4,152.8,42,182.1-46.7c19.7-58.4,8.7-142.3-19.7-178.3c-30.1,58.7-80.7,46.7-144,89.8
		c-28.1,18.9-40.8,57.6-37,93.6c-19.7-89-67.2-168.9-133.2-229.6c79.5,100.8,123.1,231.2,111.7,370.5
		c-7.1,83.4-32.8,161.1-72.8,228.1c-15.4,4.2-31.2,6.6-47.8,6.6c-95.2,0-171.9-76.8-171.9-171.7s76.7-172.2,171.6-172.2
		c32.1,0,61.8,8.9,87.5,24c7.4-20.4,8.7-53,7.4-73.3c-28.9-12.5-61.1-19.7-95-19.7C136.5,456.9,28.6,564.7,28.6,698
		c0.1,132.9,107.8,240.9,240.9,240.9s241.1-107.8,241.1-240.8C510.6,659.7,501.4,624.1,485.8,592L485.8,592z"/>
</g>
<rect id="_x3C_Tranche_x3E_" x="12.5" y="237.9" fill="none" width="627" height="717"/>
</svg>
